<svg id="recent_actors_black_24dp" xmlns="http://www.w3.org/2000/svg" width="24" height="24" viewBox="0 0 24 24">
  <path id="Path_27392" data-name="Path 27392" d="M0,0H24V24H0Z" fill="none"/>
  <path id="Path_27393" data-name="Path 27393" d="M21,5h2V19H21ZM17,5h2V19H17ZM14,5H2A1,1,0,0,0,1,6V18a1,1,0,0,0,1,1H14a1,1,0,0,0,1-1V6A1,1,0,0,0,14,5ZM13,17H3V7H13Z"/>
  <circle id="Ellipse_1616" data-name="Ellipse 1616" cx="1.95" cy="1.95" r="1.95" transform="translate(6.05 7.99)"/>
  <path id="Path_27394" data-name="Path 27394" d="M11.89,15.35c0-1.3-2.59-1.95-3.89-1.95s-3.89.65-3.89,1.95V16h7.78v-.65Z"/>
</svg>
