<svg id="Add" xmlns="http://www.w3.org/2000/svg" width="24" height="24" viewBox="0 0 24 24">
  <rect id="Rectangle_19691" data-name="Rectangle 19691" width="24" height="24" fill="none"/>
  <path id="Union_19" data-name="Union 19" d="M7.408,23.086a12,12,0,1,1,9.941-21.83A.731.731,0,0,1,16.7,2.564a10.475,10.475,0,0,0-4.667-1.1H12A10.538,10.538,0,0,0,7.477,21.52,10.459,10.459,0,0,0,12,22.54,10.624,10.624,0,0,0,16.559,21.5a10.45,10.45,0,0,0,3.734-3,10.537,10.537,0,0,0-.122-13.163.719.719,0,0,1-.16-.535A.73.73,0,0,1,21.3,4.42a12,12,0,0,1-13.9,18.666Zm4.13-5.977V12.731H7.159a.73.73,0,1,1,0-1.46h4.379V6.891a.73.73,0,1,1,1.461,0v4.38h4.38a.73.73,0,0,1,0,1.46H13v4.379a.73.73,0,1,1-1.461,0Z" transform="translate(0 0)"/>
</svg>
