<svg xmlns="http://www.w3.org/2000/svg" width="24" height="24" viewBox="0 0 24 24"><defs><style>.a{fill:none;}</style></defs><rect class="a" width="23.04" height="24" transform="translate(0.96)"/><path d="M20.113,23.333l-4.675-4.675a2.277,2.277,0,0,1,3.22-3.221l4.676,4.676a2.277,2.277,0,1,1-3.221,3.22Zm-3.7-6.915a.891.891,0,0,0,0,1.26l4.674,4.673a.92.92,0,0,0,1.265,0,.892.892,0,0,0,0-1.258l-4.676-4.675a.892.892,0,0,0-1.261,0ZM0,8.759a8.758,8.758,0,1,1,8.759,8.757A8.768,8.768,0,0,1,0,8.759Zm1.386,0A7.373,7.373,0,1,0,8.759,1.386,7.38,7.38,0,0,0,1.386,8.759Z" transform="translate(0 0)"/></svg>