<svg xmlns="http://www.w3.org/2000/svg" xmlns:xlink="http://www.w3.org/1999/xlink" width="124.584" height="34" viewBox="0 0 124.584 34"><defs><style>.a{clip-path:url(#a);}.b{fill:#013b82;}.c{fill:#939598;}</style><clipPath id="a"><rect width="123.734" height="34"/></clipPath></defs><g transform="translate(-82.86 -231.88)"><g transform="translate(83.71 231.88)"><g class="a" transform="translate(0 0)"><path class="b" d="M92.962,241.727H90.315v5.946a1.078,1.078,0,0,0,.417,1.02,2.241,2.241,0,0,0,1.121.239c.184,0,.368-.009.554-.025s.371-.024.554-.024v3.149c-.386.015-.778.043-1.17.077s-.787.049-1.17.049a9.419,9.419,0,0,1-2.255-.227,2.928,2.928,0,0,1-1.412-.757,2.879,2.879,0,0,1-.717-1.412,10.154,10.154,0,0,1-.2-2.218v-5.82H83.87v-2.772h2.166V235h4.283v3.955h2.647v2.772Z" transform="translate(-83.867 -234.044)"/></g><g class="a" transform="translate(0 0)"><path class="b" d="M131.147,252.249a2.925,2.925,0,0,0-.757-1.89,2.307,2.307,0,0,0-1.789-.781,2.478,2.478,0,0,0-1.85.732,3.513,3.513,0,0,0-.919,1.939Zm-5.318,2.392a3.227,3.227,0,0,0,.806,2.166,2.757,2.757,0,0,0,2.117.806,3.119,3.119,0,0,0,1.461-.352,2.079,2.079,0,0,0,.983-1.084H135.2a5.388,5.388,0,0,1-.943,1.951,5.644,5.644,0,0,1-1.51,1.348,6.694,6.694,0,0,1-1.915.781,9.033,9.033,0,0,1-2.129.251,8.747,8.747,0,0,1-2.91-.466,6.236,6.236,0,0,1-2.267-1.36,6.035,6.035,0,0,1-1.461-2.19,7.9,7.9,0,0,1-.518-2.935,6.79,6.79,0,0,1,.554-2.772,6.5,6.5,0,0,1,1.526-2.166,7.261,7.261,0,0,1,4.975-1.939,7.151,7.151,0,0,1,3.073.616,5.98,5.98,0,0,1,2.166,1.7,7.077,7.077,0,0,1,1.259,2.533,9.892,9.892,0,0,1,.328,3.112Z" transform="translate(-110.004 -242.146)"/></g><g class="a" transform="translate(0 0)"><path class="b" d="M183.8,251.838a1.647,1.647,0,0,0-.178-.757,1.888,1.888,0,0,0-.466-.6,2.17,2.17,0,0,0-.668-.392,2.256,2.256,0,0,0-.781-.138,2.622,2.622,0,0,0-1.449.352,2.39,2.39,0,0,0-.83.895,3.672,3.672,0,0,0-.389,1.235,9.5,9.5,0,0,0-.1,1.372,5.7,5.7,0,0,0,.138,1.247,3.226,3.226,0,0,0,.453,1.1,2.608,2.608,0,0,0,.793.781,2.118,2.118,0,0,0,1.158.3,2.288,2.288,0,0,0,1.712-.591,2.869,2.869,0,0,0,.732-1.651h4.157a6.531,6.531,0,0,1-.7,2.343,5.646,5.646,0,0,1-1.424,1.737,6.118,6.118,0,0,1-2,1.072,7.89,7.89,0,0,1-2.445.365,7.563,7.563,0,0,1-2.732-.478,6.4,6.4,0,0,1-2.166-1.36,6.246,6.246,0,0,1-1.437-2.117,7.084,7.084,0,0,1-.515-2.748,8.342,8.342,0,0,1,.478-2.873,6.465,6.465,0,0,1,1.372-2.255,6.256,6.256,0,0,1,2.154-1.473,7.3,7.3,0,0,1,2.846-.53,8.307,8.307,0,0,1,2.331.328,6.408,6.408,0,0,1,2,.971,5.116,5.116,0,0,1,1.437,1.611,5.656,5.656,0,0,1,.68,2.255H183.8Z" transform="translate(-146.845 -242.139)"/></g><g class="a" transform="translate(0 0)"><path class="b" d="M261.02,247.393h2.016v2.065h.049a4.423,4.423,0,0,1,1.752-1.789,5.136,5.136,0,0,1,2.481-.579,5.629,5.629,0,0,1,2.141.352,3.534,3.534,0,0,1,1.385.983,3.669,3.669,0,0,1,.744,1.5,7.994,7.994,0,0,1,.214,1.927v8.565h-2.141V251.6a2.6,2.6,0,0,0-.7-1.915,2.631,2.631,0,0,0-1.939-.7,4.346,4.346,0,0,0-1.7.3,3.192,3.192,0,0,0-1.2.858,3.7,3.7,0,0,0-.717,1.3,5.3,5.3,0,0,0-.239,1.627v7.355h-2.141V247.393Z" transform="translate(-206.75 -242.431)"/></g></g><path class="b" d="M310.63,249.868h2.141V236.843H310.63Zm0-15.369h2.141V231.88H310.63Z" transform="translate(-157.453 0)"/><g transform="translate(82.86 231.88)"><g class="a" transform="translate(0 0)"><path class="b" d="M338.605,251.568a3.022,3.022,0,0,0-3.226-2.595,3.99,3.99,0,0,0-1.939.429,3.454,3.454,0,0,0-1.247,1.133,4.786,4.786,0,0,0-.668,1.624,8.828,8.828,0,0,0-.2,1.9,7.208,7.208,0,0,0,.214,1.764,4.706,4.706,0,0,0,.668,1.526,3.411,3.411,0,0,0,1.17,1.069,3.521,3.521,0,0,0,1.752.4,3.476,3.476,0,0,0,2.469-.845,3.761,3.761,0,0,0,1.109-2.331h2.19a6.05,6.05,0,0,1-1.814,3.728,5.6,5.6,0,0,1-3.93,1.336,6.61,6.61,0,0,1-2.631-.493,5.208,5.208,0,0,1-1.915-1.372,5.9,5.9,0,0,1-1.158-2.1,8.779,8.779,0,0,1-.389-2.683,9.579,9.579,0,0,1,.377-2.732,6.333,6.333,0,0,1,1.146-2.218,5.377,5.377,0,0,1,1.915-1.486,6.271,6.271,0,0,1,2.708-.542,7.937,7.937,0,0,1,2.077.263,5.187,5.187,0,0,1,1.725.818,4.28,4.28,0,0,1,1.222,1.4,5.3,5.3,0,0,1,.591,2h-2.215Z" transform="translate(-253.947 -242.424)"/></g><g class="a" transform="translate(0 0)"><path class="b" d="M390.013,261.112H388v-2.065h-.049a4.443,4.443,0,0,1-1.752,1.789,5.136,5.136,0,0,1-2.481.579,5.628,5.628,0,0,1-2.141-.352,3.534,3.534,0,0,1-1.385-.983,3.671,3.671,0,0,1-.744-1.5,8,8,0,0,1-.214-1.927V248.09h2.141v8.819a2.435,2.435,0,0,0,2.644,2.619,4.345,4.345,0,0,0,1.7-.3,3.215,3.215,0,0,0,1.2-.858,3.716,3.716,0,0,0,.717-1.3,5.3,5.3,0,0,0,.239-1.627V248.09h2.141v13.022Z" transform="translate(-288.748 -243.124)"/></g><g class="a" transform="translate(0 0)"><path class="b" d="M428.15,247.386h2.016V249.3h.049a5.084,5.084,0,0,1,6.4-1.715A2.824,2.824,0,0,1,438,249.3a4.574,4.574,0,0,1,1.737-1.639,4.9,4.9,0,0,1,2.343-.579,6.773,6.773,0,0,1,1.777.214,3.671,3.671,0,0,1,1.36.668,3.061,3.061,0,0,1,.882,1.17,4.3,4.3,0,0,1,.315,1.725v9.548h-2.141v-8.541a6.024,6.024,0,0,0-.1-1.133,2.291,2.291,0,0,0-.38-.919,1.9,1.9,0,0,0-.769-.619,3.068,3.068,0,0,0-1.271-.227,3.383,3.383,0,0,0-2.481.907,3.251,3.251,0,0,0-.919,2.42v8.112h-2.141v-8.541a5.457,5.457,0,0,0-.113-1.158,2.488,2.488,0,0,0-.389-.919,1.81,1.81,0,0,0-.757-.6,2.878,2.878,0,0,0-1.186-.214,3.183,3.183,0,0,0-1.611.377,3.628,3.628,0,0,0-1.069.907,3.71,3.71,0,0,0-.607,1.1,3.117,3.117,0,0,0-.19.944v8.112H428.15Z" transform="translate(-322.682 -242.424)"/></g></g><rect class="c" width="4.341" height="4.341" transform="translate(128.861 245.524)"/><g transform="translate(83.71 231.88)"><g class="a" transform="translate(0 0)"><path class="c" d="M208.373,313.186l-.291.781c-.279.634-.45,1.072-1.192,1.072a2.782,2.782,0,0,1-.57-.067v.7a2.325,2.325,0,0,0,.634.067c1.045,0,1.311-.331,1.8-1.483l2.965-7.873h-.833l-2.1,5.823-2.248-5.823h-.885Zm-5.2-8.853h-.833v2.052h-1.192v.7h1.192v4.672c-.012,1.164.371,1.535,1.483,1.535.251,0,.49-.028.741-.028v-.714a6.2,6.2,0,0,1-.714.04c-.6-.04-.674-.358-.674-.9v-4.6h1.391v-.7h-1.391v-2.052Zm-3.1,5.689c.067-1.918-.821-3.838-3.005-3.838-2.169,0-3.085,1.814-3.085,3.612,0,1.945.913,3.612,3.085,3.612a2.782,2.782,0,0,0,2.978-2.448h-.833a2.068,2.068,0,0,1-2.144,1.746,2.422,2.422,0,0,1-2.248-2.687h5.254Zm-5.254-.7c.147-1.244.873-2.435,2.248-2.435a2.306,2.306,0,0,1,2.172,2.435Zm-1.93-2.938H191.54v-.594c0-.729,0-1.323.913-1.323a3.432,3.432,0,0,1,.61.067v-.714a4.26,4.26,0,0,0-.7-.052c-1.351,0-1.654.821-1.654,2v.622h-1.164v.7h1.164v6.127h.833v-6.127h1.351Zm-5.784,4.181a2.2,2.2,0,0,1-2.383,2.144,1.415,1.415,0,0,1-1.522-1.351c0-1.323,1.761-1.323,3.177-1.575.227-.04.594-.107.7-.3h.028Zm-3.615-2.089c.04-1.112.781-1.587,1.826-1.587.993,0,1.786.279,1.786,1.4,0,.741-.383.861-1.072.925-1.8.211-3.667.291-3.667,2.2,0,1.375,1.02,2,2.288,2a2.6,2.6,0,0,0,2.487-1.391h.028c0,.7.132,1.192.98,1.192a2.346,2.346,0,0,0,.542-.052v-.7a.622.622,0,0,1-.263.052.439.439,0,0,1-.49-.5V308.38c0-1.841-1.311-2.2-2.515-2.2-1.575,0-2.674.689-2.766,2.288h.836Zm-2.843-.092a2.239,2.239,0,0,0-2.5-2.2c-1.2,0-2.567.53-2.567,1.918,0,1.152.821,1.547,1.905,1.826l1.072.239c.754.187,1.495.45,1.495,1.244,0,.953-1.072,1.3-1.866,1.3A1.8,1.8,0,0,1,176.175,311h-.833a2.466,2.466,0,0,0,2.806,2.408c1.271,0,2.739-.57,2.739-2.052a2,2,0,0,0-1.945-1.893l-1.112-.251c-.582-.147-1.415-.423-1.415-1.152,0-.888.873-1.179,1.614-1.179a1.571,1.571,0,0,1,1.786,1.495h.836Zm-17.02,4.828h.833v-3.982a2.156,2.156,0,0,1,2.144-2.343c1.351,0,1.734.9,1.734,2.065v4.261h.833v-4.393c0-1.627-.582-2.634-2.5-2.634a2.335,2.335,0,0,0-2.184,1.375h-.028v-1.179h-.833v6.831Zm-3.069,0h.833v-6.828h-.833Zm0-8.112h.833v-1.336h-.833Zm-6.114,4.923c.067-1.918-.821-3.838-3.005-3.838-2.169,0-3.085,1.814-3.085,3.612,0,1.945.913,3.612,3.085,3.612a2.782,2.782,0,0,0,2.978-2.448h-.833a2.068,2.068,0,0,1-2.144,1.746,2.425,2.425,0,0,1-2.252-2.687h5.257Zm-5.254-.7a2.424,2.424,0,0,1,2.252-2.435,2.3,2.3,0,0,1,2.169,2.435Zm-2.356-.793a2.545,2.545,0,0,0-2.766-2.343c-2.077,0-3.229,1.654-3.229,3.612s1.152,3.612,3.229,3.612a2.761,2.761,0,0,0,2.818-2.647h-.833a2.054,2.054,0,0,1-1.985,1.945c-1.587,0-2.4-1.47-2.4-2.913s.809-2.91,2.4-2.91A1.851,1.851,0,0,1,146,308.524h.833Zm-13.42,4.684h.833v-3.982a2.156,2.156,0,0,1,2.144-2.343c1.351,0,1.734.9,1.734,2.065v4.261h.833v-4.393c0-1.627-.582-2.634-2.5-2.634a2.335,2.335,0,0,0-2.184,1.375h-.028v-1.179h-.833Zm-1.761-3.189c.067-1.918-.821-3.838-3.005-3.838-2.169,0-3.085,1.814-3.085,3.612,0,1.945.913,3.612,3.085,3.612a2.782,2.782,0,0,0,2.978-2.448h-.833a2.068,2.068,0,0,1-2.144,1.746,2.425,2.425,0,0,1-2.252-2.687h5.257Zm-5.254-.7a2.424,2.424,0,0,1,2.252-2.435,2.306,2.306,0,0,1,2.172,2.435Zm-3.572,3.89h.833v-9.45h-.833Zm-3.1,0h.833v-9.45h-.833Zm-1.786-3.189c.067-1.918-.821-3.838-3.005-3.838s-3.085,1.814-3.085,3.612c0,1.945.913,3.612,3.085,3.612a2.782,2.782,0,0,0,2.978-2.448h-.833a2.068,2.068,0,0,1-2.144,1.746,2.422,2.422,0,0,1-2.248-2.687h5.254Zm-5.254-.7c.147-1.244.873-2.435,2.248-2.435a2.3,2.3,0,0,1,2.169,2.435Zm-2.356-.793a2.545,2.545,0,0,0-2.766-2.343c-2.077,0-3.229,1.654-3.229,3.612s1.152,3.612,3.229,3.612a2.761,2.761,0,0,0,2.818-2.647h-.833a2.054,2.054,0,0,1-1.985,1.945c-1.587,0-2.4-1.47-2.4-2.913s.806-2.91,2.4-2.91a1.849,1.849,0,0,1,1.933,1.642h.833ZM96.892,313.21h1.032l2.1-2.87,2.144,2.87h1.06l-2.659-3.56,2.46-3.269H101.99l-1.905,2.595-1.945-2.595H97.095l2.448,3.281Zm-.993-3.189c.067-1.918-.821-3.838-3.005-3.838-2.169,0-3.085,1.814-3.085,3.612,0,1.945.913,3.612,3.085,3.612a2.782,2.782,0,0,0,2.978-2.448h-.833a2.068,2.068,0,0,1-2.144,1.746,2.422,2.422,0,0,1-2.248-2.687H95.9Zm-5.257-.7a2.422,2.422,0,0,1,2.248-2.435,2.3,2.3,0,0,1,2.169,2.435Z" transform="translate(-87.987 -281.741)"/></g></g></g></svg>