<svg xmlns="http://www.w3.org/2000/svg" width="23.222" height="24.2" viewBox="0 0 23.222 24.2">
  <g id="settings_1_" data-name="settings (1)" transform="translate(-2.152 -1.9)">
    <path id="Path_27175" data-name="Path 27175" d="M8.089,4.866A10.675,10.675,0,0,0,6.967,5.7l.468,1.06a2.393,2.393,0,0,1-2.409,3.369L3.886,10a10.828,10.828,0,0,0-.428,1.339l.995.579a2.419,2.419,0,0,1,0,4.164l-.995.579A10.833,10.833,0,0,0,3.886,18l1.14-.125a2.393,2.393,0,0,1,2.409,3.369L6.967,22.3a10.676,10.676,0,0,0,1.121.829l.849-.781a2.351,2.351,0,0,1,3.9,1.287l.234,1.138q.344.022.694.023t.694-.023l.234-1.138a2.351,2.351,0,0,1,3.9-1.287l.849.781a10.682,10.682,0,0,0,1.121-.829l-.468-1.06A2.393,2.393,0,0,1,22.5,17.876L23.64,18a10.824,10.824,0,0,0,.428-1.339l-.995-.579a2.419,2.419,0,0,1,0-4.164l.995-.579A10.818,10.818,0,0,0,23.64,10l-1.14.125a2.393,2.393,0,0,1-2.409-3.369l.468-1.06a10.682,10.682,0,0,0-1.121-.829l-.849.781a2.351,2.351,0,0,1-3.9-1.287l-.234-1.138q-.344-.022-.694-.023t-.694.023L12.835,4.36a2.351,2.351,0,0,1-3.9,1.287Zm.768-.912a1.1,1.1,0,0,0-1.332-.145A11.858,11.858,0,0,0,6.151,4.825a1.141,1.141,0,0,0-.274,1.331l.482,1.091a1.2,1.2,0,0,1-1.2,1.685L3.98,8.8a1.108,1.108,0,0,0-1.161.676,12.043,12.043,0,0,0-.526,1.645,1.135,1.135,0,0,0,.548,1.24l1.024.6a1.21,1.21,0,0,1,0,2.082l-1.024.6a1.135,1.135,0,0,0-.548,1.239,12.043,12.043,0,0,0,.526,1.645A1.107,1.107,0,0,0,3.98,19.2l1.174-.129a1.2,1.2,0,0,1,1.2,1.684l-.482,1.091a1.141,1.141,0,0,0,.274,1.331,11.846,11.846,0,0,0,1.375,1.017,1.1,1.1,0,0,0,1.332-.145l.874-.8a1.175,1.175,0,0,1,1.949.643l.241,1.171a1.117,1.117,0,0,0,.994.913q.421.03.849.03t.849-.03a1.117,1.117,0,0,0,.994-.913l.241-1.171a1.176,1.176,0,0,1,1.949-.643l.874.8A1.1,1.1,0,0,0,20,24.192a11.841,11.841,0,0,0,1.375-1.017,1.141,1.141,0,0,0,.274-1.331l-.482-1.091a1.2,1.2,0,0,1,1.2-1.684l1.174.129a1.107,1.107,0,0,0,1.161-.676,12.055,12.055,0,0,0,.526-1.645,1.135,1.135,0,0,0-.548-1.239l-1.024-.6a1.21,1.21,0,0,1,0-2.082l1.024-.6a1.135,1.135,0,0,0,.548-1.24,12.055,12.055,0,0,0-.526-1.645A1.108,1.108,0,0,0,23.547,8.8l-1.174.129a1.2,1.2,0,0,1-1.2-1.684l.482-1.091a1.141,1.141,0,0,0-.274-1.331A11.853,11.853,0,0,0,20,3.808a1.1,1.1,0,0,0-1.332.145l-.874.8a1.175,1.175,0,0,1-1.949-.643l-.241-1.171a1.117,1.117,0,0,0-.994-.913Q14.192,2,13.763,2t-.849.031a1.117,1.117,0,0,0-.994.913l-.241,1.171a1.175,1.175,0,0,1-1.949.643Z" transform="translate(0 0)" stroke="#000" stroke-width="0.2" fill-rule="evenodd"/>
    <path id="Path_27176" data-name="Path 27176" d="M7.031,12.157a.571.571,0,0,1,.726-.458.71.71,0,0,1,.476.79,5.035,5.035,0,0,0,.5,2.906,4.8,4.8,0,0,0,2.589,2.342,4.613,4.613,0,0,0,3.442-.078A4.818,4.818,0,0,0,17.246,15.2a5.043,5.043,0,0,0,.223-3.545,4.873,4.873,0,0,0-2.156-2.769,4.622,4.622,0,0,0-3.4-.538A4.718,4.718,0,0,0,9.435,9.827a.672.672,0,0,1-.893.132.6.6,0,0,1-.127-.868A5.953,5.953,0,0,1,11.641,7.1a5.825,5.825,0,0,1,4.289.678,6.142,6.142,0,0,1,2.718,3.49,6.356,6.356,0,0,1-.282,4.468,6.071,6.071,0,0,1-3.133,3.1,5.813,5.813,0,0,1-4.338.1,6.048,6.048,0,0,1-3.263-2.951,6.348,6.348,0,0,1-.6-3.827Z" transform="translate(0.822 0.869)" fill-rule="evenodd"/>
  </g>
</svg>
