<svg id="Sorting" xmlns="http://www.w3.org/2000/svg" width="16" height="16" viewBox="0 0 16 16">
  <rect id="Rectangle_19641" data-name="Rectangle 19641" width="16" height="16" fill="none"/>
  <g id="Group_16648" data-name="Group 16648" transform="translate(-387.063 -4635)">
    <g id="download" transform="translate(389.063 4640.885)">
      <g id="Group_15386" data-name="Group 15386" transform="translate(0 0)">
        <g id="Group_15385" data-name="Group 15385">
          <path id="Path_27230" data-name="Path 27230" d="M236.525,7.488a.525.525,0,0,0,.525-.525V.525a.525.525,0,0,0-1.051,0V6.963A.525.525,0,0,0,236.525,7.488Z" transform="translate(-232.374)" fill="rgba(69,75,87,0.37)"/>
          <path id="Path_27231" data-name="Path 27231" d="M101.007,226.791l0,0a1.578,1.578,0,0,0,2.229,0l2.909-2.9a.525.525,0,0,0-.742-.745l-2.91,2.9a.525.525,0,0,1-.742,0l-2.855-2.9a.525.525,0,0,0-.748.738Z" transform="translate(-97.999 -217.14)" fill="rgba(69,75,87,0.37)"/>
        </g>
      </g>
    </g>
    <g id="download-2" data-name="download" transform="translate(392.426 4635)">
      <g id="Group_15386-2" data-name="Group 15386" transform="translate(0 0)">
        <g id="Group_15385-2" data-name="Group 15385">
          <path id="Path_27230-2" data-name="Path 27230" d="M236.525,0a.525.525,0,0,1,.525.525V6.963a.525.525,0,0,1-1.051,0V.525A.525.525,0,0,1,236.525,0Z" transform="translate(-232.374 2.627)" fill="#083a81"/>
          <path id="Path_27231-2" data-name="Path 27231" d="M101.007,223.463l0,0a1.578,1.578,0,0,1,2.229,0l2.909,2.9a.525.525,0,0,1-.742.745l-2.91-2.9a.525.525,0,0,0-.742,0L98.9,227.1a.525.525,0,1,1-.748-.738Z" transform="translate(-97.999 -222.999)" fill="#083a81"/>
        </g>
      </g>
    </g>
  </g>
</svg>
