<svg xmlns="http://www.w3.org/2000/svg" width="16" height="16" viewBox="0 0 16 16"><defs><style>.a{fill:none;}</style></defs><rect class="a" width="16" height="16"/><g transform="translate(-387.063 -4635)"><g transform="translate(389.063 4640.885)"><g transform="translate(0 0)"><path d="M236.525,7.488a.525.525,0,0,0,.525-.525V.525a.525.525,0,0,0-1.051,0V6.963A.525.525,0,0,0,236.525,7.488Z" transform="translate(-232.374)"/><path d="M101.007,226.791l0,0a1.578,1.578,0,0,0,2.229,0l2.909-2.9a.525.525,0,0,0-.742-.745l-2.91,2.9a.525.525,0,0,1-.742,0l-2.855-2.9a.525.525,0,0,0-.748.738Z" transform="translate(-97.999 -217.14)"/></g></g><g transform="translate(392.426 4635)"><g transform="translate(0 0)"><path d="M236.525,0a.525.525,0,0,1,.525.525V6.963a.525.525,0,0,1-1.051,0V.525A.525.525,0,0,1,236.525,0Z" transform="translate(-232.374 2.627)"/><path d="M101.007,223.463l0,0a1.578,1.578,0,0,1,2.229,0l2.909,2.9a.525.525,0,0,1-.742.745l-2.91-2.9a.525.525,0,0,0-.742,0L98.9,227.1a.525.525,0,1,1-.748-.738Z" transform="translate(-97.999 -222.999)"/></g></g></g></svg>