<svg xmlns="http://www.w3.org/2000/svg" width="24" height="24" viewBox="0 0 24 24"><defs><style>.a{fill:none;}</style></defs><rect class="a" width="24" height="24"/><path d="M24,19.313a.937.937,0,0,1-.937.938H20.25v2.813a.938.938,0,0,1-1.875,0V20.25H15.563a.938.938,0,0,1,0-1.875h2.813V15.563a.938.938,0,0,1,1.875,0v2.813h2.813A.937.937,0,0,1,24,19.313Zm-7.5,3.75a.937.937,0,0,1-.937.938H2.813A2.816,2.816,0,0,1,0,21.188V19.453a5.613,5.613,0,0,1,1.9-4.218,13.035,13.035,0,0,1,5.871-2.8A6.934,6.934,0,1,1,12,13.875c-5.152,0-7.911,1.936-8.859,2.768a3.738,3.738,0,0,0-1.266,2.81v1.734a.939.939,0,0,0,.938.938h12.75A.937.937,0,0,1,16.5,23.063ZM12,12A5.063,5.063,0,1,0,6.938,6.938,5.068,5.068,0,0,0,12,12Zm0,0"/></svg>