<svg xmlns="http://www.w3.org/2000/svg" width="16" height="16.001" viewBox="0 0 16 16.001"><defs><style>.a{fill:none;}</style></defs><rect class="a" width="16" height="16"/><g transform="translate(-425 -4472)"><path d="M15.375,5.438a.625.625,0,0,0-.625.625V10.5a.625.625,0,0,0,1.25,0V6.063a.625.625,0,0,0-.625-.625Zm0,7.438a.625.625,0,0,0-.625.625,1.251,1.251,0,0,1-1.25,1.25H2.5A1.251,1.251,0,0,1,1.25,13.5V2.5A1.251,1.251,0,0,1,2.5,1.25h7.844a.625.625,0,0,0,0-1.25H2.5A2.5,2.5,0,0,0,0,2.5v11A2.5,2.5,0,0,0,2.5,16h11A2.5,2.5,0,0,0,16,13.5.625.625,0,0,0,15.375,12.875Z" transform="translate(425 4472)"/><g transform="translate(429.644 4472)"><g transform="translate(0)"><path d="M10.691.666a2.272,2.272,0,0,0-3.213,0l-6.35,6.35a.444.444,0,0,0-.114.195l-1,3.583a.444.444,0,0,0,.549.546l3.583-1.018a.444.444,0,0,0,.193-.74L2.082,7.316,7.346,2.052,9.3,4.01,5.274,8.028a.444.444,0,0,0,.627.628l4.791-4.778a2.272,2.272,0,0,0,0-3.213ZM3.181,9.674l-2.1.6.587-2.111Zm6.883-6.423-.132.132L7.973,1.425l.132-.132a1.385,1.385,0,0,1,1.959,1.958Z" transform="translate(0)"/></g></g></g></svg>