<svg xmlns="http://www.w3.org/2000/svg" width="24" height="24.004" viewBox="0 0 24 24.004"><defs><style>.a{fill:none;}.b{fill:#083a81;}</style></defs><rect class="a" width="23.763" height="23.763" transform="translate(0.118 0.119)"/><path class="b" d="M6.137,24A2.953,2.953,0,0,1,3.2,21.246l-.06-.935c-.274-4.24-.75-11.637-.893-13.848H1.816A1.815,1.815,0,0,1,0,4.646V4.08A1.818,1.818,0,0,1,1.816,2.263h6.6V1.816A1.815,1.815,0,0,1,10.236,0h3.395a1.817,1.817,0,0,1,1.817,1.816v.447h6.736A1.818,1.818,0,0,1,24,4.08v.566a1.815,1.815,0,0,1-1.816,1.817h-.56c-.155,2.385-.7,10.8-.953,14.783A2.952,2.952,0,0,1,17.73,24ZM4.563,21.158a1.582,1.582,0,0,0,1.574,1.477H17.73A1.582,1.582,0,0,0,19.3,21.158c.253-3.934.786-12.2.947-14.7H9.171a.685.685,0,0,1,0-1.37H22.184a.445.445,0,0,0,.447-.447V4.08a.447.447,0,0,0-.447-.447H1.816a.448.448,0,0,0-.447.447v.566a.445.445,0,0,0,.447.447H6.908a.685.685,0,0,1,0,1.37H3.615ZM9.92,1.5a.44.44,0,0,0-.13.315v.447h4.29V1.816a.447.447,0,0,0-.132-.317.454.454,0,0,0-.317-.129H10.236A.45.45,0,0,0,9.92,1.5ZM7.073,17.783l-.786-5.6a.685.685,0,1,1,1.356-.19l.786,5.6a.686.686,0,0,1-.583.773.7.7,0,0,1-.1.007A.687.687,0,0,1,7.073,17.783Zm4.177-.122V12a.685.685,0,1,1,1.369,0v5.658a.685.685,0,1,1-1.369,0Zm4.7.616a.685.685,0,0,1-.583-.773l.786-5.6a.685.685,0,0,1,1.356.19l-.787,5.6a.686.686,0,0,1-.677.59A.7.7,0,0,1,15.945,18.277Z" transform="translate(0)"/></svg>