<svg xmlns="http://www.w3.org/2000/svg" width="27.93" height="27.93" viewBox="0 0 27.93 27.93">
  <g id="noun_inspection_3420154" transform="translate(-16 -16)">
    <g id="Group_16834" data-name="Group 16834" transform="translate(16 16)">
      <path id="Path_27415" data-name="Path 27415" d="M43.93,31.769a.465.465,0,0,0-.142-.334l-1.862-1.8A.466.466,0,0,0,41.6,29.5H38.537l-.193-.193V19.259a.466.466,0,0,0-.465-.466h-3.8a1.4,1.4,0,0,0-1.316-.931h-.512a2.328,2.328,0,0,0-4.561,0h-.512a1.4,1.4,0,0,0-1.316.931h-3.8a.466.466,0,0,0-.466.466V30.431H18.328a.466.466,0,0,0-.329.136l-1.862,1.862a.466.466,0,0,0-.136.329V43.465a.466.466,0,0,0,.466.465h27a.466.466,0,0,0,.465-.465v-11.7Zm-.931.2v2L41.137,32.1V30.431h.277Zm0,8.24H41.137V37.879A.466.466,0,0,0,41,37.549l-2.56-2.56a.522.522,0,0,1,.738-.738l1.164,1.164,1.4,1.4a.466.466,0,0,0,.658,0l.6-.6Zm-4.655,0v-4l1.862,1.862v2.135Zm4.462-5.121-.738.738L41,34.756h0l-1.164-1.164-4.751-4.751V28.1h.738Zm-2.6-4.655v.738l-.738-.738ZM27.172,18.793H28.1a.466.466,0,0,0,.466-.466,1.4,1.4,0,1,1,2.793,0,.466.466,0,0,0,.466.466h.931a.466.466,0,0,1,.466.466v.466H26.707v-.466A.466.466,0,0,1,27.172,18.793ZM21.586,33.244a1.455,1.455,0,0,0-1.493.348l-.369.369v-2.6h1.862Zm-4.655-.293,1.589-1.589h.273v3.724a.466.466,0,0,0,.795.329l1.164-1.164a.522.522,0,1,1,.738.738l-2.56,2.56a.466.466,0,0,0-.136.329v2.328H16.931Zm2.793,5.121,1.862-1.862v4H19.724Zm-2.793,3.066h4.655V43H16.931Zm5.586-21.413h3.259v.466a.466.466,0,0,0,.466.466h7.448a.466.466,0,0,0,.465-.466v-.466h3.259v8.652l-1.067-1.067a.466.466,0,0,0-.329-.136h-1.4a.466.466,0,0,0-.466.466v1.4a.466.466,0,0,0,.136.329l3.122,3.122V43h-14.9ZM43,43H38.344V41.137H43Z" transform="translate(-16 -16)" fill="#083981"/>
      <path id="Path_27416" data-name="Path 27416" d="M147.138,114.986v1.2a.466.466,0,0,0,.465.466H150.4a.466.466,0,0,0,.465-.466v-1.2l.136.136.658-.658-.931-.931-1.4-1.4a.466.466,0,0,0-.658,0l-1.4,1.4-.931.931.658.658Zm2.793-.931v1.669h-1.862v-1.669l.931-.931Z" transform="translate(-138.759 -106.414)" fill="#083981"/>
      <path id="Path_27417" data-name="Path 27417" d="M161.862,222.517a1.861,1.861,0,0,0,1.374-3.117.465.465,0,0,0,.022-.142V217.4a.466.466,0,0,0-.465-.465h-.465V216H161.4v.931h-.465a.466.466,0,0,0-.466.465v1.862a.465.465,0,0,0,.022.142,1.861,1.861,0,0,0,1.374,3.117Zm0-.931a.931.931,0,1,1,.931-.931A.932.932,0,0,1,161.862,221.586Zm-.465-3.724h.931v.931H161.4Z" transform="translate(-151.621 -204.362)" fill="#083981"/>
      <path id="Path_27418" data-name="Path 27418" d="M148.655,345.862h-1.4v-.931h.465V344h-1.862v.931h.465v.931h-1.862a.466.466,0,0,0-.465.465v1.862a.466.466,0,0,0,.465.465h2.328v.931a.465.465,0,0,0,.466.465h1.862a.466.466,0,0,0,.466-.465v-2.793A.932.932,0,0,0,148.655,345.862Zm0,3.259h-.931v-.931a.465.465,0,0,0-.465-.466h-2.328v-.931h3.724Z" transform="translate(-136.552 -324.914)" fill="#083981"/>
      <rect id="Rectangle_19941" data-name="Rectangle 19941" width="5.811" height="0.894" transform="translate(14.304 9.156)" fill="#083981"/>
      <rect id="Rectangle_19942" data-name="Rectangle 19942" width="5.811" height="0.894" transform="translate(14.304 16.308)" fill="#083981"/>
      <rect id="Rectangle_19943" data-name="Rectangle 19943" width="5.811" height="0.894" transform="translate(14.304 23.46)" fill="#083981"/>
      <rect id="Rectangle_19944" data-name="Rectangle 19944" width="0.894" height="0.894" transform="translate(13.41 2.004)" fill="#083981"/>
    </g>
  </g>
</svg>
