<svg xmlns="http://www.w3.org/2000/svg" xmlns:xlink="http://www.w3.org/1999/xlink" width="24" height="24" viewBox="0 0 24 24"><defs><style>.a{fill:none;}.b{fill:url(#a);}.c{fill:url(#b);}</style><linearGradient id="a" y1="0.152" x2="0" y2="1" gradientUnits="objectBoundingBox"><stop offset="0" stop-color="#35b8f4"/><stop offset="1" stop-color="#083a81"/></linearGradient><linearGradient id="b" x1="0.5" y1="1" x2="0.5" gradientUnits="objectBoundingBox"><stop offset="0" stop-color="#addcff"/><stop offset="0.503" stop-color="#eaf6ff"/><stop offset="1" stop-color="#eaf6ff"/></linearGradient></defs><rect class="a" width="24" height="24"/><g transform="translate(0 2)"><g transform="translate(0 0)"><path class="b" d="M24,93.708A2.462,2.462,0,0,0,21.891,91h-12l-.738,3.611L8.484,91H2.109A2.462,2.462,0,0,0,0,93.708v6.32l2.813.858L0,101.834v6.32a2.463,2.463,0,0,0,2.109,2.708H8.484l.606-1.806.8,1.806h12A2.463,2.463,0,0,0,24,108.154v-6.32l-8.484-.867L24,100.028Z" transform="translate(0 -91)"/></g><g transform="translate(0 0)"><path class="c" d="M20.438,105.445H17.625a.931.931,0,0,0,0,1.806h2.812a.931.931,0,0,0,0-1.806Zm-6.458-5.417a3.361,3.361,0,0,0,.13-.9A2.469,2.469,0,0,0,12,96.417,2.011,2.011,0,0,0,10.311,97.5l-.42.72V91H8.484v7.221l-.42-.72h0a2.008,2.008,0,0,0-1.688-1.084,2.469,2.469,0,0,0-2.109,2.708,3.361,3.361,0,0,0,.13.9H0v1.806H7.49L5.878,103.9a1.092,1.092,0,0,0,0,1.277.6.6,0,0,0,.994,0l1.612-2.07v7.752H9.891v-7.752l1.612,2.07a.6.6,0,0,0,.994,0,1.092,1.092,0,0,0,0-1.277l-1.612-2.07H24v-1.806Zm-7.6,0a.931.931,0,0,1,0-1.806.664.664,0,0,1,.564.362l.842,1.443Zm5.625,0H10.594l.842-1.443c.367-.628,1.268-.245,1.268.54A.823.823,0,0,1,12,100.028Zm5.625-1.806a.821.821,0,0,0,.7-.9V95.514a.821.821,0,0,0-.7-.9.821.821,0,0,0-.7.9V97.32A.821.821,0,0,0,17.625,98.223Zm2.812,0a.821.821,0,0,0,.7-.9V95.514a.821.821,0,0,0-.7-.9.821.821,0,0,0-.7.9V97.32A.821.821,0,0,0,20.438,98.223Z" transform="translate(0 -91)"/></g></g></svg>