<svg xmlns="http://www.w3.org/2000/svg" xmlns:xlink="http://www.w3.org/1999/xlink" width="24" height="24" viewBox="0 0 24 24"><defs><style>.a{fill:none;}.b{fill:url(#a);}.c{fill:url(#b);}</style><linearGradient id="a" x1="0.455" y1="0.012" x2="0.467" y2="1" gradientUnits="objectBoundingBox"><stop offset="0" stop-color="#00a4e0"/><stop offset="1" stop-color="#083a81"/></linearGradient><linearGradient id="b" x1="0.5" y1="1" x2="0.5" gradientUnits="objectBoundingBox"><stop offset="0" stop-color="#addcff"/><stop offset="0.503" stop-color="#eaf6ff"/><stop offset="1" stop-color="#b1ddff"/></linearGradient></defs><rect class="a" width="24" height="24"/><g transform="translate(0 -15)"><g transform="translate(0 16)"><path class="b" d="M23.3,16H17.864l-3.052,2.109-3.516.667V16.7H1.406v3.516H3.7l-3.7.7V33.578a.7.7,0,0,0,.7.7H3.563a.7.7,0,0,0,.7-.7v3.516H19.734V33.578a.7.7,0,0,0,.7.7H23.3a.7.7,0,0,0,.7-.7V16.7A.7.7,0,0,0,23.3,16Z" transform="translate(0 -16)"/></g><g transform="translate(0 16)"><path class="c" d="M20.438,25.844H13.983a2.306,2.306,0,0,0,.127-.7,2.109,2.109,0,0,0-4.219,0,2.3,2.3,0,0,0,.127.7H3.563a.7.7,0,0,0-.7.7V37.8a.7.7,0,0,0,.7.7H20.438a.7.7,0,0,0,.7-.7V26.547A.7.7,0,0,0,20.438,25.844ZM11.3,34.984a.7.7,0,0,1-.7.7H6.375a.7.7,0,0,1-.7-.7V29.359a.7.7,0,0,1,.7-.7h4.219a.7.7,0,0,1,.7.7Zm.7-9.141a.7.7,0,1,1,.7-.7A.7.7,0,0,1,12,25.844Zm5.625,9.844H13.406a.7.7,0,0,1,0-1.406h4.219a.7.7,0,0,1,0,1.406Zm0-2.812H13.406a.7.7,0,0,1,0-1.406h4.219a.7.7,0,0,1,0,1.406Zm0-2.812H13.406a.7.7,0,0,1,0-1.406h4.219a.7.7,0,0,1,0,1.406Zm-1.246-9.621L17.864,16H.7a.7.7,0,0,0-.7.7v4.219H15.712A.7.7,0,0,0,16.379,20.442ZM3.563,18.813a.7.7,0,1,1,.7-.7A.7.7,0,0,1,3.563,18.813Zm2.813,0a.7.7,0,1,1,.7-.7A.7.7,0,0,1,6.375,18.813Zm2.813,0a.7.7,0,1,1,.7-.7A.7.7,0,0,1,9.188,18.813Z" transform="translate(0 -16)"/></g></g></svg>