<svg xmlns="http://www.w3.org/2000/svg" xmlns:xlink="http://www.w3.org/1999/xlink" width="24" height="24" viewBox="0 0 24 24"><defs><style>.a{fill:none;}.b{fill:url(#a);}.c{fill:url(#b);}</style><linearGradient id="a" x1="0.455" y1="0.012" x2="0.467" y2="1" gradientUnits="objectBoundingBox"><stop offset="0" stop-color="#00a4e0"/><stop offset="1" stop-color="#083a81"/></linearGradient><linearGradient id="b" x1="0.5" y1="1" x2="0.5" y2="0.538" gradientUnits="objectBoundingBox"><stop offset="0" stop-color="#c6deff"/><stop offset="1" stop-color="#e7f5fc"/></linearGradient></defs><rect class="a" width="24" height="24"/><g transform="translate(-30)"><g transform="translate(31)"><path class="b" d="M52.267,0H31.733A.718.718,0,0,0,31,.7V23.3a.718.718,0,0,0,.733.7H52.267A.718.718,0,0,0,53,23.3V.7A.718.718,0,0,0,52.267,0Z" transform="translate(-31)"/></g><g transform="translate(33.933 2.859)"><path class="c" d="M94.667,66.625h.807a3.491,3.491,0,0,0,.543,1.237l-.572.548a.661.661,0,0,0,0,.984.729.729,0,0,0,1.027,0l.572-.548a3.808,3.808,0,0,0,1.291.52v.773a.734.734,0,0,0,1.467,0v-.773a3.808,3.808,0,0,0,1.291-.52l.572.548a.729.729,0,0,0,1.027,0,.661.661,0,0,0,0-.984l-.572-.548a3.492,3.492,0,0,0,.543-1.237h.807a.7.7,0,1,0,0-1.406h-.807a3.491,3.491,0,0,0-.543-1.238l.572-.548a.661.661,0,0,0,0-.984.73.73,0,0,0-1.027,0l-.572.548a3.81,3.81,0,0,0-1.291-.52V61.7a.734.734,0,0,0-1.467,0v.773a3.81,3.81,0,0,0-1.291.52l-.572-.548a.73.73,0,0,0-1.027,0,.661.661,0,0,0,0,.984l.572.548a3.492,3.492,0,0,0-.543,1.238h-.807a.7.7,0,1,0,0,1.406Zm4.4-1.406a.7.7,0,1,1-.733.7A.712.712,0,0,1,99.067,65.219Zm-7.333,8.438h2.2v.7a.734.734,0,0,0,1.467,0v-.7h11a.7.7,0,1,0,0-1.406h-11v-.7a.734.734,0,0,0-1.467,0v.7h-2.2a.7.7,0,1,0,0,1.406ZM106.4,76.469h-2.2v-.7a.734.734,0,0,0-1.467,0v.7h-11a.7.7,0,1,0,0,1.406h11v.7a.734.734,0,0,0,1.467,0v-.7h2.2a.7.7,0,1,0,0-1.406Z" transform="translate(-91 -61)"/></g></g></svg>