<?xml version="1.0" encoding="UTF-8"?>
<svg xmlns="http://www.w3.org/2000/svg" xmlns:xlink="http://www.w3.org/1999/xlink" width="30px" height="30px" viewBox="0 0 30 30" version="1.1">
<g id="surface1">
<path style=" stroke:none;fill-rule:nonzero;fill:rgb(0%,30.980392%,56.862745%);fill-opacity:1;" d="M 15 10 C 16.375 10 17.5 8.875 17.5 7.5 C 17.5 6.125 16.375 5 15 5 C 13.625 5 12.5 6.125 12.5 7.5 C 12.5 8.875 13.625 10 15 10 Z M 15 12.5 C 13.625 12.5 12.5 13.625 12.5 15 C 12.5 16.375 13.625 17.5 15 17.5 C 16.375 17.5 17.5 16.375 17.5 15 C 17.5 13.625 16.375 12.5 15 12.5 Z M 15 20 C 13.625 20 12.5 21.125 12.5 22.5 C 12.5 23.875 13.625 25 15 25 C 16.375 25 17.5 23.875 17.5 22.5 C 17.5 21.125 16.375 20 15 20 Z M 15 20 "/>
</g>
</svg>
