<svg xmlns="http://www.w3.org/2000/svg" xmlns:xlink="http://www.w3.org/1999/xlink" width="24" height="24" viewBox="0 0 24 24">
  <defs>
    <clipPath id="clip-Offer_Status_Tracker_Widget">
      <rect width="24" height="24"/>
    </clipPath>
  </defs>
  <g id="Offer_Status_Tracker_Widget" data-name="Offer Status Tracker Widget" clip-path="url(#clip-Offer_Status_Tracker_Widget)">
    <g id="Group_20432" data-name="Group 20432" transform="translate(-5.699 -8)">
      <g id="Group_20426" data-name="Group 20426" transform="translate(7 8)">
        <g id="Group_20411" data-name="Group 20411">
          <path id="Path_29218" data-name="Path 29218" d="M92.677,277.176a.937.937,0,0,0-.937-.937H86.761a.938.938,0,0,0,0,1.875H91.74A.937.937,0,0,0,92.677,277.176Z" transform="translate(-81.915 -263.289)" fill="#083a81"/>
          <path id="Path_29219" data-name="Path 29219" d="M86.761,362.766a.938.938,0,0,0,0,1.875h4a.938.938,0,0,0,0-1.875Z" transform="translate(-81.915 -345.761)" fill="#083a81"/>
          <path id="Path_29220" data-name="Path 29220" d="M96.464,190.646a.937.937,0,0,0-.937-.937H86.761a.938.938,0,1,0,0,1.875h8.766A.938.938,0,0,0,96.464,190.646Z" transform="translate(-81.915 -180.816)" fill="#083a81"/>
          <path id="Path_29221" data-name="Path 29221" d="M12.906,22.125H6.2A1.877,1.877,0,0,1,4.329,20.25V6.022A1.877,1.877,0,0,1,6.2,4.147H8.322v.57a.937.937,0,0,0,.938.938h4.846a.937.937,0,0,0,.938-.937v-.57h2.118a1.877,1.877,0,0,1,1.875,1.875V9.076a.937.937,0,1,0,1.875,0V6.022a3.754,3.754,0,0,0-3.75-3.75H15.043V.938A.937.937,0,0,0,14.106,0H9.259a.937.937,0,0,0-.937.937V2.272H6.2a3.754,3.754,0,0,0-3.75,3.75V20.25A3.754,3.754,0,0,0,6.2,24h6.7a.938.938,0,0,0,0-1.875ZM10.2,1.875h2.971V3.78H10.2Z" transform="translate(-2.454 0)" fill="#083a81"/>
        </g>
        <g id="radar" transform="translate(13.161 13.348)">
          <g id="Group_20406" data-name="Group 20406">
            <g id="Group_20405" data-name="Group 20405">
              <path id="Path_29214" data-name="Path 29214" d="M79,81.847A2.849,2.849,0,0,0,82.562,84.6a.322.322,0,1,0-.161-.623,2.2,2.2,0,1,1,.19-4.208.322.322,0,0,0,.217-.606A2.849,2.849,0,0,0,79,81.847Z" transform="translate(-77.729 -77.729)" fill="#083a81"/>
              <ellipse id="Ellipse_1775" data-name="Ellipse 1775" cx="0.343" cy="0.318" rx="0.343" ry="0.318" transform="translate(1.91 0.498)" fill="#083a81"/>
              <path id="Path_29215" data-name="Path 29215" d="M.808,84.91A3.481,3.481,0,0,1,1.5,81.569a.322.322,0,0,0-.485-.423A4.124,4.124,0,0,0,.2,85.106a.322.322,0,1,0,.613-.2Z" transform="translate(0 -79.732)" fill="#083a81"/>
              <circle id="Ellipse_1776" data-name="Ellipse 1776" cx="0.318" cy="0.318" r="0.318" transform="translate(5.729 2.163)" fill="#083a81"/>
              <path id="Path_29216" data-name="Path 29216" d="M163.472,1.206A4.091,4.091,0,0,0,160.56,0a4.157,4.157,0,0,0-.7.059.322.322,0,1,0,.108.634,3.478,3.478,0,0,1,4.064,3.425,3.448,3.448,0,0,1-.8,2.219l-.446-.446a2.828,2.828,0,0,0,.619-1.773,2.868,2.868,0,0,0-.052-.544.322.322,0,0,0-.632.122,2.222,2.222,0,0,1,.04.421,2.189,2.189,0,0,1-.434,1.314l-.462-.462a1.56,1.56,0,1,0-1.834.617.322.322,0,1,0,.217-.606.917.917,0,1,1,1.144-.484l-.607-.607a.322.322,0,0,0-.455.455L162.988,7a.318.318,0,0,0,.254.125h0a.321.321,0,0,0,.227-.094A.326.326,0,0,0,163.5,7a4.117,4.117,0,0,0-.031-5.792Z" transform="translate(-156.443)" fill="#083a81"/>
              <path id="Path_29217" data-name="Path 29217" d="M110.86,433.946a3.48,3.48,0,0,1-3.365-.241.322.322,0,0,0-.352.538,4.123,4.123,0,0,0,3.99.285.322.322,0,1,0-.272-.583Z" transform="translate(-105.276 -426.678)" fill="#083a81"/>
              <circle id="Ellipse_1777" data-name="Ellipse 1777" cx="0.318" cy="0.318" r="0.318" transform="translate(0.784 6.081)" fill="#083a81"/>
            </g>
          </g>
        </g>
      </g>
    </g>
  </g>
</svg>
