<svg xmlns="http://www.w3.org/2000/svg" xmlns:xlink="http://www.w3.org/1999/xlink" width="24" height="24" viewBox="0 0 24 24">
  <defs>
    <clipPath id="clip-Order_Status_Tracker_Widget">
      <rect width="24" height="24"/>
    </clipPath>
  </defs>
  <g id="Order_Status_Tracker_Widget" data-name="Order Status Tracker Widget" clip-path="url(#clip-Order_Status_Tracker_Widget)">
    <g id="Group_20427" data-name="Group 20427" transform="translate(7957.579 -7545)">
      <g id="Group_20407" data-name="Group 20407" transform="translate(-7957 7545)">
        <path id="Subtraction_8" data-name="Subtraction 8" d="M15.276,24H3.75A3.754,3.754,0,0,1,0,20.25V3.75A3.754,3.754,0,0,1,3.75,0H15.276a3.754,3.754,0,0,1,3.75,3.75V5.977H17.151V3.75a1.877,1.877,0,0,0-1.875-1.875H3.75A1.877,1.877,0,0,0,1.875,3.75v16.5A1.877,1.877,0,0,0,3.75,22.125H15.276a1.877,1.877,0,0,0,1.875-1.875.938.938,0,1,1,1.875,0A3.754,3.754,0,0,1,15.276,24Zm-9.1-4.266a1.638,1.638,0,0,1-1.127-.45l-.023-.023L4.018,18.234a.938.938,0,1,1,1.34-1.312l.8.817,2.026-2.452a.937.937,0,1,1,1.445,1.194L7.441,19.13a1.638,1.638,0,0,1-1.16.6C6.246,19.733,6.21,19.734,6.174,19.734Zm0-5.672a1.638,1.638,0,0,1-1.127-.45l-.023-.023L4.018,12.562a.938.938,0,1,1,1.34-1.312l.8.817L8.184,9.616A.937.937,0,1,1,9.629,10.81L7.441,13.458a1.638,1.638,0,0,1-1.16.6C6.246,14.061,6.21,14.062,6.174,14.063Zm0-5.76a1.638,1.638,0,0,1-1.127-.45l-.025-.025L4.016,6.795A.938.938,0,1,1,5.359,5.487l.8.821L8.184,3.856A.937.937,0,1,1,9.629,5.05L7.441,7.7a1.638,1.638,0,0,1-1.16.6C6.247,8.3,6.211,8.3,6.174,8.3Z" transform="translate(0 0)" fill="#083a81"/>
        <g id="radar" transform="translate(12.908 7.641)">
          <g id="Group_20406" data-name="Group 20406">
            <g id="Group_20405" data-name="Group 20405">
              <path id="Path_29214" data-name="Path 29214" d="M79,82.435a3.437,3.437,0,0,0,4.3,3.325.388.388,0,1,0-.194-.751,2.659,2.659,0,1,1,.229-5.077.388.388,0,0,0,.262-.731A3.437,3.437,0,0,0,79,82.435Z" transform="translate(-77.467 -77.467)" fill="#083a81"/>
              <ellipse id="Ellipse_1775" data-name="Ellipse 1775" cx="0.414" cy="0.384" rx="0.414" ry="0.384" transform="translate(2.304 0.601)" fill="#083a81"/>
              <path id="Path_29215" data-name="Path 29215" d="M.975,85.71a4.2,4.2,0,0,1,.831-4.031.388.388,0,1,0-.585-.51,4.976,4.976,0,0,0-.985,4.777.388.388,0,1,0,.739-.237Z" transform="translate(0 -79.463)" fill="#083a81"/>
              <circle id="Ellipse_1776" data-name="Ellipse 1776" cx="0.384" cy="0.384" r="0.384" transform="translate(6.912 2.61)" fill="#083a81"/>
              <path id="Path_29216" data-name="Path 29216" d="M164.395,1.455A4.935,4.935,0,0,0,160.882,0a5.016,5.016,0,0,0-.842.071.388.388,0,1,0,.131.765,4.2,4.2,0,0,1,4.9,4.131,4.159,4.159,0,0,1-.966,2.677l-.538-.538a3.412,3.412,0,0,0,.747-2.139,3.459,3.459,0,0,0-.063-.656.388.388,0,0,0-.762.147,2.681,2.681,0,0,1,.049.508,2.641,2.641,0,0,1-.524,1.585L162.459,6a1.882,1.882,0,1,0-2.212.744.388.388,0,1,0,.262-.731,1.107,1.107,0,1,1,1.38-.584l-.732-.732a.388.388,0,1,0-.549.549l3.2,3.2a.383.383,0,0,0,.306.15h0a.387.387,0,0,0,.274-.114.393.393,0,0,0,.035-.04,4.967,4.967,0,0,0-.037-6.987Z" transform="translate(-155.915)" fill="#083a81"/>
              <path id="Path_29217" data-name="Path 29217" d="M111.658,434.006a4.2,4.2,0,0,1-4.06-.29.388.388,0,1,0-.425.65,4.974,4.974,0,0,0,4.813.344.388.388,0,1,0-.328-.7Z" transform="translate(-104.921 -425.238)" fill="#083a81"/>
              <circle id="Ellipse_1777" data-name="Ellipse 1777" cx="0.384" cy="0.384" r="0.384" transform="translate(0.945 7.336)" fill="#083a81"/>
            </g>
          </g>
        </g>
      </g>
    </g>
  </g>
</svg>
