<svg xmlns="http://www.w3.org/2000/svg" xmlns:xlink="http://www.w3.org/1999/xlink" width="24" height="24" viewBox="0 0 24 24"><defs><style>.a{fill:none;}.b{fill:url(#a);}.c{fill:url(#b);}</style><linearGradient id="a" y1="0.152" x2="0" y2="1" gradientUnits="objectBoundingBox"><stop offset="0" stop-color="#35b8f4"/><stop offset="1" stop-color="#083a81"/></linearGradient><linearGradient id="b" x1="0.5" y1="1" x2="0.5" gradientUnits="objectBoundingBox"><stop offset="0" stop-color="#addcff"/><stop offset="0.503" stop-color="#eaf6ff"/><stop offset="1" stop-color="#eaf6ff"/></linearGradient></defs><rect class="a" width="24" height="24"/><g transform="translate(-58)"><g transform="translate(61 1.406)"><path class="b" d="M78.578,30H61.7a.7.7,0,0,0-.7.7V51.891a.7.7,0,0,0,.7.7H78.578a.7.7,0,0,0,.7-.7V30.7A.7.7,0,0,0,78.578,30Z" transform="translate(-61 -30)"/></g><g transform="translate(65.219)"><path class="c" d="M151.7,8.484h.7v.7a.7.7,0,0,0,1.406,0v-.7h.7a.7.7,0,0,0,0-1.406h-.7v-.7a.7.7,0,0,0-1.406,0v.7h-.7a.7.7,0,0,0,0,1.406Zm1.406-5.672h5.625a1.406,1.406,0,0,0,1.406-1.406V.7a.7.7,0,0,0-.7-.7h-7.031a.7.7,0,0,0-.7.7v.7A1.406,1.406,0,0,0,153.109,2.813Zm1.406,15.516h-.7v-.7a.7.7,0,0,0-1.406,0v.7h-.7a.7.7,0,0,0,0,1.406h.7v.7a.7.7,0,0,0,1.406,0v-.7h.7a.7.7,0,0,0,0-1.406Zm5.625-8.437a.7.7,0,0,0,.7-.7V6.375a.729.729,0,0,0-.7-.7h-2.812a.7.7,0,0,0,0,1.406h1.115l-4.43,4.43a2.085,2.085,0,0,0-.9-.211,2.109,2.109,0,1,0,1.962,2.869,3.506,3.506,0,0,1,2.9,2.9,2.116,2.116,0,1,0,1.4-.036,4.9,4.9,0,0,0-4.27-4.27,2.09,2.09,0,0,0-.1-.26l4.43-4.43V9.188A.7.7,0,0,0,160.141,9.891Zm-7.031,4.219a.7.7,0,1,1,.7-.7A.7.7,0,0,1,153.109,14.109Zm5.625,4.219a.7.7,0,1,1-.7.7A.7.7,0,0,1,158.734,18.328Z" transform="translate(-151)"/></g></g></svg>