<svg id="Group_19564" data-name="Group 19564" xmlns="http://www.w3.org/2000/svg" width="42.712" height="42.712" viewBox="0 0 42.712 42.712">
  <g id="outlook-1">
    <path id="Path_27355" data-name="Path 27355" d="M34.024,1.875H11.236A1.861,1.861,0,0,0,9.375,3.736V5.851L22.219,9.828,35.885,5.851V3.736A1.861,1.861,0,0,0,34.024,1.875Z" transform="translate(4.176 0.776)" fill="#0364b8"/>
    <path id="Path_27356" data-name="Path 27356" d="M38.848,19.578a15.033,15.033,0,0,0,.464-1.862.883.883,0,0,0-.441-.763l-.017-.011-.005,0L24.482,8.755a1.992,1.992,0,0,0-2.153,0L7.964,16.94l-.005,0-.016.009a.883.883,0,0,0-.443.763,15.036,15.036,0,0,0,.464,1.862L23.2,30.719Z" transform="translate(3.4 3.668)" fill="#0a2767"/>
    <path id="Path_27357" data-name="Path 27357" d="M26,4.688H16.722L14.043,8.664l2.679,3.976L26,20.593h7.953V12.64Z" transform="translate(6.108 2.014)" fill="#28a8ea"/>
    <path id="Path_27358" data-name="Path 27358" d="M9.375,4.688h9.278V12.64H9.375Z" transform="translate(3.998 1.997)" fill="#0078d4"/>
    <path id="Path_27359" data-name="Path 27359" d="M22.5,4.688h7.953V12.64H22.5Z" transform="translate(9.608 1.997)" fill="#50d9ff"/>
    <path id="Path_27360" data-name="Path 27360" d="M27.932,18.265l-9.278-7.953H9.375v7.953l9.278,7.953,14.358,2.343Z" transform="translate(4.176 4.447)" fill="#0364b8"/>
    <path id="Path_27361" data-name="Path 27361" d="M9.4,4.688H35.873" transform="translate(4.188 1.94)" fill="none"/>
    <path id="Path_27362" data-name="Path 27362" d="M15.938,10.313h9.278v7.953H15.938Z" transform="translate(6.797 4.393)" fill="#0078d4"/>
    <path id="Path_27363" data-name="Path 27363" d="M9.375,15.938h9.278V23.89H9.375Z" transform="translate(3.998 6.79)" fill="#064a8c"/>
    <path id="Path_27364" data-name="Path 27364" d="M22.5,15.938h7.953V23.89H22.5Z" transform="translate(9.608 6.79)" fill="#0078d4"/>
    <path id="Path_27365" data-name="Path 27365" d="M23.5,27.328,7.872,15.929l.656-1.153s14.242,8.112,14.46,8.234a.7.7,0,0,0,.557-.016l14.491-8.258.657,1.152Z" transform="translate(3.554 6.305)" fill="#0a2767" opacity="0.5"/>
    <path id="Path_27366" data-name="Path 27366" d="M34.466,15.765l-.019.011,0,0L20.078,23.962a1.984,1.984,0,0,1-1.935.121l5,6.708,10.941,2.382v.005a1.986,1.986,0,0,0,.822-1.609V15A.883.883,0,0,1,34.466,15.765Z" transform="translate(7.805 6.504)" fill="#1490df"/>
    <path id="Path_27367" data-name="Path 27367" d="M34.907,29.212v-.978L21.675,20.694l-1.6.911a1.984,1.984,0,0,1-1.935.121l5,6.708,10.941,2.382v.005A1.986,1.986,0,0,0,34.907,29.212Z" transform="translate(7.805 8.861)" opacity="0.05"/>
    <path id="Path_27368" data-name="Path 27368" d="M34.841,29.5l-14.5-8.262-.258.146a1.984,1.984,0,0,1-1.935.122l5,6.708,10.941,2.382V30.6a1.99,1.99,0,0,0,.756-1.1Z" transform="translate(7.805 9.084)" opacity="0.1"/>
    <path id="Path_27369" data-name="Path 27369" d="M7.964,15.782v-.013H7.951l-.04-.027A.862.862,0,0,1,7.5,15V31.568a1.986,1.986,0,0,0,1.988,1.988H37.323a1.992,1.992,0,0,0,.49-.066.844.844,0,0,0,.239-.08.188.188,0,0,0,.08-.027,1.389,1.389,0,0,0,.3-.172c.027-.013.04-.013.053-.04Z" transform="translate(3.4 6.504)" fill="#28a8ea"/>
    <path id="Path_27370" data-name="Path 27370" d="M20.755,30.255V8.35a1.783,1.783,0,0,0-1.767-1.788h-8.8v10L7.964,17.846l-.007,0-.016.009a.9.9,0,0,0-.441.774V32.043H18.988a1.783,1.783,0,0,0,1.767-1.788Z" transform="translate(3.212 2.716)" opacity="0.1"/>
    <path id="Path_27371" data-name="Path 27371" d="M19.429,30.917V9.267A1.772,1.772,0,0,0,17.662,7.5H10.191v8.557l-2.227,1.27-.007,0-.016.009A.883.883,0,0,0,7.5,18.1v14.58H17.662A1.772,1.772,0,0,0,19.429,30.917Z" transform="translate(3.207 3.286)" opacity="0.2"/>
    <path id="Path_27372" data-name="Path 27372" d="M19.429,28.266v-19A1.772,1.772,0,0,0,17.662,7.5H10.191v8.557l-2.227,1.27-.007,0-.016.009A.883.883,0,0,0,7.5,18.1V30.033H17.662A1.772,1.772,0,0,0,19.429,28.266Z" transform="translate(3.207 3.262)" opacity="0.2"/>
    <path id="Path_27373" data-name="Path 27373" d="M18.1,28.266v-19A1.772,1.772,0,0,0,16.337,7.5H10.191v8.557l-2.227,1.27-.007,0-.016.009A.883.883,0,0,0,7.5,18.1V30.033h8.837A1.772,1.772,0,0,0,18.1,28.266Z" transform="translate(3.203 3.262)" opacity="0.2"/>
    <path id="Path_27374" data-name="Path 27374" d="M1.767,7.5H19.441a1.767,1.767,0,0,1,1.767,1.767V26.941a1.767,1.767,0,0,1-1.767,1.767H1.767A1.767,1.767,0,0,1,0,26.941V9.267A1.767,1.767,0,0,1,1.767,7.5Z" transform="translate(0 3.252)" fill="#0078d4"/>
    <path id="Path_27375" data-name="Path 27375" d="M3.842,13.585a5.542,5.542,0,0,1,2.176-2.4,6.581,6.581,0,0,1,3.46-.867,6.12,6.12,0,0,1,3.2.822,5.487,5.487,0,0,1,2.118,2.3,7.419,7.419,0,0,1,.742,3.38,7.822,7.822,0,0,1-.765,3.534,5.619,5.619,0,0,1-2.18,2.378,6.362,6.362,0,0,1-3.32.844A6.268,6.268,0,0,1,6,22.737a5.572,5.572,0,0,1-2.145-2.3A7.236,7.236,0,0,1,3.1,17.1,8.026,8.026,0,0,1,3.842,13.585Zm2.32,5.644a3.6,3.6,0,0,0,1.223,1.583,3.2,3.2,0,0,0,1.913.577,3.357,3.357,0,0,0,2.043-.6,3.45,3.45,0,0,0,1.189-1.587A6.132,6.132,0,0,0,12.908,17a6.711,6.711,0,0,0-.358-2.235A3.538,3.538,0,0,0,11.4,13.121a3.164,3.164,0,0,0-2.024-.627,3.3,3.3,0,0,0-1.958.582A3.633,3.633,0,0,0,6.169,14.67a6.33,6.33,0,0,0-.009,4.56Z" transform="translate(1.284 4.415)" fill="#fff"/>
    <path id="Path_27376" data-name="Path 27376" d="M0,0H42.712V42.712H0Z" fill="none"/>
  </g>
</svg>
