<svg xmlns="http://www.w3.org/2000/svg" xmlns:xlink="http://www.w3.org/1999/xlink" width="24" height="24" viewBox="0 0 24 24">
  <defs>
    <clipPath id="clip-Project_Status_Tracker_Widget">
      <rect width="24" height="24"/>
    </clipPath>
  </defs>
  <g id="Project_Status_Tracker_Widget" data-name="Project Status Tracker Widget" clip-path="url(#clip-Project_Status_Tracker_Widget)">
    <g id="Group_20416" data-name="Group 20416" transform="translate(9129 -9716.576)">
      <path id="project_1_" data-name="project (1)" d="M11.156,19.266H3.75a1.877,1.877,0,0,1-1.875-1.875V17.3A1.877,1.877,0,0,1,3.75,15.422H5.667a.938.938,0,0,0,.937-.937V5.156H20.25a1.877,1.877,0,0,1,1.875,1.875v5.438a.937.937,0,1,0,1.875,0V7.031a3.754,3.754,0,0,0-3.75-3.75H6.6V.937A.938.938,0,0,0,5.667,0H3.75A3.754,3.754,0,0,0,0,3.75V17.391a3.754,3.754,0,0,0,3.75,3.75h7.406a.937.937,0,1,0,0-1.875ZM1.875,3.75A1.877,1.877,0,0,1,3.75,1.875h.979V13.547H3.75a3.727,3.727,0,0,0-1.875.5Z" transform="translate(-9129 9717)" fill="#083a81"/>
      <g id="radar" transform="translate(-9114.286 9730.871)">
        <g id="Group_20406" data-name="Group 20406">
          <g id="Group_20405" data-name="Group 20405">
            <path id="Path_29214" data-name="Path 29214" d="M79,82.208a3.211,3.211,0,0,0,4.014,3.106.363.363,0,1,0-.182-.7,2.483,2.483,0,1,1,.214-4.742.363.363,0,0,0,.245-.682A3.21,3.21,0,0,0,79,82.208Z" transform="translate(-77.568 -77.568)" fill="#083a81"/>
            <ellipse id="Ellipse_1775" data-name="Ellipse 1775" cx="0.386" cy="0.359" rx="0.386" ry="0.359" transform="translate(2.152 0.562)" fill="#083a81"/>
            <path id="Path_29215" data-name="Path 29215" d="M.91,85.4a3.922,3.922,0,0,1,.777-3.765.363.363,0,0,0-.547-.476,4.648,4.648,0,0,0-.92,4.462A.363.363,0,1,0,.91,85.4Z" transform="translate(0 -79.567)" fill="#083a81"/>
            <circle id="Ellipse_1776" data-name="Ellipse 1776" cx="0.359" cy="0.359" r="0.359" transform="translate(6.456 2.438)" fill="#083a81"/>
            <path id="Path_29216" data-name="Path 29216" d="M164.039,1.359A4.61,4.61,0,0,0,160.758,0a4.685,4.685,0,0,0-.786.066.363.363,0,0,0,.122.715,3.919,3.919,0,0,1,4.579,3.859,3.885,3.885,0,0,1-.9,2.5l-.5-.5a3.187,3.187,0,0,0,.7-2,3.232,3.232,0,0,0-.059-.613.363.363,0,0,0-.712.138,2.505,2.505,0,0,1,.045.475,2.467,2.467,0,0,1-.49,1.481l-.521-.521a1.758,1.758,0,1,0-2.066.7.363.363,0,0,0,.245-.682,1.034,1.034,0,1,1,1.289-.545l-.684-.684a.363.363,0,0,0-.513.513l2.993,2.993a.356.356,0,0,0,.03.034.361.361,0,0,0,.257.106h0a.362.362,0,0,0,.256-.106.368.368,0,0,0,.032-.038,4.64,4.64,0,0,0-.035-6.527Z" transform="translate(-156.118 0)" fill="#083a81"/>
            <path id="Path_29217" data-name="Path 29217" d="M111.35,433.983a3.922,3.922,0,0,1-3.792-.271.363.363,0,0,0-.4.607,4.646,4.646,0,0,0,4.5.321.362.362,0,1,0-.306-.657Z" transform="translate(-105.057 -425.793)" fill="#083a81"/>
            <circle id="Ellipse_1777" data-name="Ellipse 1777" cx="0.359" cy="0.359" r="0.359" transform="translate(0.883 6.852)" fill="#083a81"/>
          </g>
        </g>
      </g>
    </g>
  </g>
</svg>
