<svg xmlns="http://www.w3.org/2000/svg" width="24.619" height="27.354" viewBox="0 0 24.619 27.354">
  <g id="noun_Project_3474313" transform="translate(-5 -2)">
    <g id="Group_16827" data-name="Group 16827" transform="translate(5 2)">
      <path id="Path_27405" data-name="Path 27405" d="M33.838,5.781,30.191,2.134A.456.456,0,0,0,29.868,2H15.279A2.282,2.282,0,0,0,13,4.28V9.75h.912V4.28a1.368,1.368,0,0,1,1.368-1.368H29.412v2.28A1.368,1.368,0,0,0,30.78,6.559H33.06V27.075a1.368,1.368,0,0,1-1.368,1.368H15.279a1.368,1.368,0,0,1-1.368-1.368V21.6H13v5.471a2.282,2.282,0,0,0,2.28,2.279H31.692a2.282,2.282,0,0,0,2.28-2.28V6.1a.456.456,0,0,0-.134-.322Zm-3.514-.589V3.556l2.091,2.091H30.78A.456.456,0,0,1,30.324,5.191Z" transform="translate(-9.353 -2)" fill="#083981"/>
      <rect id="Rectangle_19915" data-name="Rectangle 19915" width="1" height="1" transform="translate(6 2.354)" fill="#083981"/>
      <rect id="Rectangle_19916" data-name="Rectangle 19916" width="3" height="1" transform="translate(8 2.354)" fill="#083981"/>
      <rect id="Rectangle_19917" data-name="Rectangle 19917" width="5" height="1" transform="translate(6 4.354)" fill="#083981"/>
      <path id="Path_27406" data-name="Path 27406" d="M26.839,39.191a1.368,1.368,0,1,0-2.633.513l-2.181,1.942a1.35,1.35,0,0,0-.657-.176,1.374,1.374,0,1,0,1.266.854l2.181-1.942a1.334,1.334,0,0,0,1.565-.177l2.761,1.5a1.333,1.333,0,0,0-.022.216,1.368,1.368,0,1,0,2.735,0,1.354,1.354,0,0,0-.316-.866l1.411-2.353a1.351,1.351,0,0,0,.274.028,1.368,1.368,0,1,0-1.368-1.368,1.354,1.354,0,0,0,.316.866l-1.411,2.353a1.348,1.348,0,0,0-1.182.325l-2.761-1.5A1.334,1.334,0,0,0,26.839,39.191Zm-5.471,4.1a.456.456,0,1,1,.456-.456A.456.456,0,0,1,21.368,43.294Zm4.1-3.647a.456.456,0,1,1,.456-.456A.456.456,0,0,1,25.471,39.647Zm7.75-2.735a.456.456,0,1,1-.456.456A.456.456,0,0,1,33.221,36.912Zm-2.735,4.559a.456.456,0,1,1-.456.456A.456.456,0,0,1,30.486,41.471Z" transform="translate(-13.161 -20.499)" fill="#083981"/>
      <rect id="Rectangle_19918" data-name="Rectangle 19918" width="6" height="1" transform="translate(16 8.354)" fill="#083981"/>
      <rect id="Rectangle_19919" data-name="Rectangle 19919" width="8" height="1" transform="translate(8 8.354)" fill="#083981"/>
      <rect id="Rectangle_19920" data-name="Rectangle 19920" width="6" height="1" transform="translate(16 10.354)" fill="#083981"/>
      <rect id="Rectangle_19921" data-name="Rectangle 19921" width="8" height="1" transform="translate(8 10.354)" fill="#083981"/>
      <rect id="Rectangle_19922" data-name="Rectangle 19922" width="6" height="1" transform="translate(16 11.354)" fill="#083981"/>
      <rect id="Rectangle_19923" data-name="Rectangle 19923" width="8" height="1" transform="translate(8 11.354)" fill="#083981"/>
      <rect id="Rectangle_19924" data-name="Rectangle 19924" width="6" height="1" transform="translate(16 13.354)" fill="#083981"/>
      <rect id="Rectangle_19925" data-name="Rectangle 19925" width="8" height="1" transform="translate(8 13.354)" fill="#083981"/>
      <path id="Path_27407" data-name="Path 27407" d="M11.633,23.7a.912.912,0,0,0,.662-.873v-.912A.912.912,0,0,0,11.383,21H5.912A.912.912,0,0,0,5,21.912v.912a.912.912,0,0,0,.662.873L7.28,25.719v.593L5.662,28.334A.912.912,0,0,0,5,29.206v.912a.912.912,0,0,0,.912.912h5.471a.912.912,0,0,0,.912-.912v-.912a.912.912,0,0,0-.662-.873l-1.618-2.023v-.593ZM5.912,21.912h5.471v.912H5.912Zm0,8.206v-.912h5.471v.912ZM9.3,26.881l1.132,1.413H6.86l1.131-1.413a.912.912,0,0,0,.2-.57v-.593a.912.912,0,0,0-.2-.569L6.86,23.735h3.574L9.3,25.149a.912.912,0,0,0-.2.57v.593a.912.912,0,0,0,.2.569Z" transform="translate(-5 -12.338)" fill="#083981"/>
    </g>
  </g>
</svg>
