<svg id="reset_tv_black_24dp" xmlns="http://www.w3.org/2000/svg" width="24" height="24" viewBox="0 0 24 24">
  <g id="Group_17477" data-name="Group 17477">
    <path id="Path_28187" data-name="Path 28187" d="M0,0H24V24H0Z" fill="none"/>
  </g>
  <g id="Group_17479" data-name="Group 17479">
    <g id="Group_17478" data-name="Group 17478">
      <path id="Path_28188" data-name="Path 28188" d="M22,8V5a2.006,2.006,0,0,0-2-2H4A2.006,2.006,0,0,0,2,5V17a2.006,2.006,0,0,0,2,2H8v2h8V19h4a2,2,0,0,0,1.99-2V12H22a2.006,2.006,0,0,0-2-2H12.83l1.83-1.83L13.25,6.76C9.69,10.31,10.88,9.12,9,11l4.24,4.24,1.41-1.41L12.83,12H20v5H4V5H20V8Z"/>
    </g>
  </g>
</svg>
