<svg xmlns="http://www.w3.org/2000/svg" xmlns:xlink="http://www.w3.org/1999/xlink" width="24" height="24" viewBox="0 0 24 24">
  <defs>
    <clipPath id="clip-Task_Manager">
      <rect width="24" height="24"/>
    </clipPath>
  </defs>
  <g id="Task_Manager" data-name="Task Manager" clip-path="url(#clip-Task_Manager)">
    <path id="list_1_" data-name="list (1)" d="M39.548,22.125H30.319a1.877,1.877,0,0,1-1.875-1.875V6.094a1.877,1.877,0,0,1,1.875-1.875h2.948v.469a2.813,2.813,0,0,0,5.625,0V4.219h2.953A1.877,1.877,0,0,1,43.72,6.094v6.844a.938.938,0,0,0,1.875,0V6.094a3.754,3.754,0,0,0-3.75-3.75H38.892V.938A.937.937,0,0,0,37.954,0H34.2a.937.937,0,0,0-.937.938V2.344H30.319a3.754,3.754,0,0,0-3.75,3.75V20.25A3.754,3.754,0,0,0,30.319,24h9.229a.938.938,0,1,0,0-1.875ZM35.142,1.875h1.875V4.688a.938.938,0,0,1-1.875,0ZM47.256,19.2l-5.136-5.147a.937.937,0,0,0-.391-.235L38.039,12.7a.937.937,0,0,0-1.176,1.147l1.048,3.784a.938.938,0,0,0,.24.412l5.127,5.136A2.813,2.813,0,0,0,47.256,19.2Zm-8.131-4.213,1.834.557,3.465,3.473L43.1,20.342,39.653,16.89Zm6.8,6.864a.938.938,0,0,1-1.325,0l-.181-.182,1.326-1.326.181.181A.938.938,0,0,1,45.93,21.85Z" transform="translate(-25.324)" fill="#083a81"/>
  </g>
</svg>
