<svg xmlns="http://www.w3.org/2000/svg" width="27" height="27" viewBox="0 0 27 27">
  <g id="noun_task_3151758" transform="translate(-0.626 -1)">
    <g id="Group_16833" data-name="Group 16833" transform="translate(0.626 1)">
      <rect id="Rectangle_19936" data-name="Rectangle 19936" width="0.834" height="0.834" transform="translate(16.991 13.344)" fill="#073980"/>
      <rect id="Rectangle_19937" data-name="Rectangle 19937" width="0.834" height="0.834" transform="translate(18.659 13.344)" fill="#073980"/>
      <rect id="Rectangle_19938" data-name="Rectangle 19938" width="1.668" height="0.834" transform="translate(14.49 13.344)" fill="#073980"/>
      <path id="Path_27408" data-name="Path 27408" d="M3.6,1H1V3.6H3.6ZM2.731,2.731H1.866V1.866h.866Z" transform="translate(-0.838 -1)" fill="#073980"/>
      <rect id="Rectangle_19939" data-name="Rectangle 19939" width="4.17" height="0.834" transform="translate(3.648 0.834)" fill="#073980"/>
      <path id="Path_27409" data-name="Path 27409" d="M3.6,9H1v2.6H3.6Zm-.866,1.731H1.866V9.866h.866Z" transform="translate(-0.838 -5.537)" fill="#073980"/>
      <rect id="Rectangle_19940" data-name="Rectangle 19940" width="4.17" height="0.834" transform="translate(3.648 4.17)" fill="#073980"/>
      <path id="Path_27410" data-name="Path 27410" d="M3.6,17H1v2.6H3.6Zm-.866,1.731H1.866v-.866h.866Z" transform="translate(-0.838 -10.074)" fill="#073980"/>
      <path id="Path_27411" data-name="Path 27411" d="M3.6,25H1v2.6H3.6Zm-.866,1.731H1.866v-.866h.866Z" transform="translate(-0.838 -14.611)" fill="#073980"/>
      <path id="Path_27412" data-name="Path 27412" d="M25.827,17.556a1.2,1.2,0,0,1-.019-.875A9.93,9.93,0,0,0,25,4.233L27.5,1.739l-.612-.612L24.393,3.621A9.948,9.948,0,0,0,7.954,8.792h-3.7v.866H7.8a9.687,9.687,0,0,0,0,2.6H4.251v.866h3.7a9.877,9.877,0,0,0,.8,2.249l-6.62,6.62L.626,28l6.011-1.5,5.406-5.406v.687h.686a1.219,1.219,0,0,1,.858,2.068l-.486.485,2.449,2.449.485-.485a1.2,1.2,0,0,1,1.331-.247,1.19,1.19,0,0,1,.738,1.1v.686h3.463v-.686a1.219,1.219,0,0,1,2.069-.857l.485.485,2.449-2.449-.486-.484a1.2,1.2,0,0,1-.247-1.331,1.191,1.191,0,0,1,1.1-.738h.686V18.315H26.94A1.2,1.2,0,0,1,25.827,17.556ZM17.67,1.866a9.044,9.044,0,0,1,6.1,2.374L22.55,5.463a7.386,7.386,0,1,0,.612.612l1.224-1.224A9.077,9.077,0,1,1,17.67,1.866Zm-1.3,11L22.55,6.687a6.515,6.515,0,1,1-.612-.612l-5.567,5.567L14.513,9.784,13.9,10.4Zm6.926,7.18a3.461,3.461,0,0,1-6.831.79q.456.055.924.068a2.593,2.593,0,0,0,5.042-.859,2.643,2.643,0,0,0-.022-.336q.406-.221.788-.478A3.483,3.483,0,0,1,23.3,20.046Zm-1.739.074a1.725,1.725,0,0,1-3.233.767A9.893,9.893,0,0,0,21.558,20.121ZM5.568,25.872l-2.137.534L2.219,25.194l.535-2.137Zm-.489-1.713,5.867-5.867a9.992,9.992,0,0,0,1.522,1.15L6.415,25.494Zm5.255-6.479L4.467,23.546,3.131,22.21l6.053-6.053A9.992,9.992,0,0,0,10.334,17.679Zm-8.36,8.495.477.477-.636.159ZM26.76,20.92a2.087,2.087,0,0,0-1.411,3.406l-1.235,1.235a2.087,2.087,0,0,0-3.406,1.411H18.96a2.087,2.087,0,0,0-3.406-1.411l-1.235-1.235a2.087,2.087,0,0,0-1.411-3.406v-.694l.348-.348a9.881,9.881,0,0,0,2.3.807,4.327,4.327,0,1,0,8.384-2,10.034,10.034,0,0,0,1.035-.971c.02.065.035.132.061.2a2.053,2.053,0,0,0,1.724,1.265V20.92Z" transform="translate(-0.626 -1)" fill="#073980"/>
      <circle id="Ellipse_1617" data-name="Ellipse 1617" cx="0.417" cy="0.417" r="0.417" transform="translate(18.659 24.185)" fill="#073980"/>
      <path id="Path_27413" data-name="Path 27413" d="M53.433,53a.433.433,0,1,0,.306.127A.432.432,0,0,0,53.433,53Z" transform="translate(-30.329 -30.491)" fill="#073980"/>
      <circle id="Ellipse_1618" data-name="Ellipse 1618" cx="0.417" cy="0.417" r="0.417" transform="translate(24.497 18.347)" fill="#073980"/>
      <path id="Path_27414" data-name="Path 27414" d="M35.433,53a.433.433,0,1,0,.306.127A.432.432,0,0,0,35.433,53Z" transform="translate(-20.121 -30.491)" fill="#073980"/>
    </g>
  </g>
</svg>
