<svg id="microsoft-teams-1" xmlns="http://www.w3.org/2000/svg" width="42.712" height="42.712" viewBox="0 0 42.712 42.712">
  <circle id="Ellipse_1614" data-name="Ellipse 1614" cx="6.103" cy="6.103" r="6.103" transform="translate(16.598 1.743)" fill="#7b83eb"/>
  <path id="Path_27377" data-name="Path 27377" d="M17.968,7H12.44l.027.122,0,.01.029.112a6.109,6.109,0,0,0,7.212,4.41V8.743A1.749,1.749,0,0,0,17.968,7Z" transform="translate(4.235 2.368)" opacity="0.1"/>
  <path id="Path_27378" data-name="Path 27378" d="M16.555,8H12.783A6.1,6.1,0,0,0,18.3,11.488V9.743A1.749,1.749,0,0,0,16.555,8Z" transform="translate(4.331 2.698)" opacity="0.2"/>
  <ellipse id="Ellipse_1615" data-name="Ellipse 1615" cx="4.449" cy="5.339" rx="4.449" ry="5.339" transform="translate(32.896 4.477)" fill="#5059c9"/>
  <path id="Path_27379" data-name="Path 27379" d="M33.117,12H22.836a.837.837,0,0,0-.837.837V23.443a6.7,6.7,0,0,0,5.188,6.649,6.547,6.547,0,0,0,7.891-6.4V13.962A1.962,1.962,0,0,0,33.117,12Z" transform="translate(7.633 4.267)" fill="#5059c9"/>
  <path id="Path_27380" data-name="Path 27380" d="M29.925,13.962V26.386a10.456,10.456,0,0,1-19.512,5.231,9.381,9.381,0,0,1-.654-1.308A10.943,10.943,0,0,1,9.327,29,10.776,10.776,0,0,1,9,26.386V13.962A1.959,1.959,0,0,1,10.962,12h17a1.959,1.959,0,0,1,1.962,1.962Z" transform="translate(3.255 4.556)" fill="#7b83eb"/>
  <path id="Path_27381" data-name="Path 27381" d="M16.555,8H12.783A6.1,6.1,0,0,0,18.3,11.488V9.743A1.749,1.749,0,0,0,16.555,8Z" transform="translate(4.331 2.698)" opacity="0.2"/>
  <path id="Path_27382" data-name="Path 27382" d="M20.77,12V28.57a1.726,1.726,0,0,1-1.36,1.687,1.263,1.263,0,0,1-.379.052H9.759A10.942,10.942,0,0,1,9.327,29,10.776,10.776,0,0,1,9,26.386V13.962A1.959,1.959,0,0,1,10.962,12Z" transform="translate(3.108 4.269)" opacity="0.1"/>
  <path id="Path_27383" data-name="Path 27383" d="M19.462,12V29.878a1.265,1.265,0,0,1-.052.379,1.726,1.726,0,0,1-1.687,1.36H10.412a9.381,9.381,0,0,1-.654-1.308A10.943,10.943,0,0,1,9.327,29,10.776,10.776,0,0,1,9,26.386V13.962A1.959,1.959,0,0,1,10.962,12Z" transform="translate(3.094 4.302)" opacity="0.2"/>
  <path id="Path_27384" data-name="Path 27384" d="M19.462,12V27.262A1.747,1.747,0,0,1,17.723,29h-8.4A10.776,10.776,0,0,1,9,26.386V13.962A1.959,1.959,0,0,1,10.962,12Z" transform="translate(3.094 4.238)" opacity="0.2"/>
  <path id="Path_27385" data-name="Path 27385" d="M10.962,12A1.959,1.959,0,0,0,9,13.962V26.386A10.776,10.776,0,0,0,9.327,29h7.088a1.747,1.747,0,0,0,1.739-1.739V12Z" transform="translate(3.081 4.238)" opacity="0.2"/>
  <path id="Path_27386" data-name="Path 27386" d="M1.743,8H19.181a1.743,1.743,0,0,1,1.743,1.743V27.181a1.743,1.743,0,0,1-1.743,1.743H1.743A1.743,1.743,0,0,1,0,27.181V9.743A1.743,1.743,0,0,1,1.743,8Z" transform="translate(0 2.894)" fill="#4b53bc"/>
  <path id="Path_27387" data-name="Path 27387" d="M14.43,13.581H10.52V24.07H7.954V13.581H4.02V11.005H14.43Z" transform="translate(1.237 3.819)" fill="#fff"/>
  <path id="Path_27388" data-name="Path 27388" d="M0,0H42.712V42.712H0Z" fill="none"/>
</svg>
