<svg xmlns="http://www.w3.org/2000/svg" xmlns:xlink="http://www.w3.org/1999/xlink" width="24" height="24" viewBox="0 0 24 24"><defs><style>.a{fill:none;}.b{fill:url(#a);}.c{fill:url(#b);}</style><linearGradient id="a" x1="0.455" y1="0.012" x2="0.467" y2="1" gradientUnits="objectBoundingBox"><stop offset="0" stop-color="#00a4e0"/><stop offset="1" stop-color="#083a81"/></linearGradient><linearGradient id="b" x1="0.5" y1="1" x2="0.5" gradientUnits="objectBoundingBox"><stop offset="0" stop-color="#addcff"/><stop offset="0.503" stop-color="#eaf6ff"/><stop offset="1" stop-color="#eaf6ff"/></linearGradient></defs><rect class="a" width="24" height="24" transform="translate(0)"/><g transform="translate(0 -44)"><g transform="translate(2.859 46)"><g transform="translate(0 0)"><path class="b" d="M78.578,46H61.7a.7.7,0,0,0-.7.7V59.191L66.189,60.8v4.889h7.9V60.776l5.189-1.586V46.7A.7.7,0,0,0,78.578,46Z" transform="translate(-61 -46)"/></g></g><g transform="translate(0 48.812)"><g transform="translate(0 0)"><path class="c" d="M9.187,114.437h5.625a.7.7,0,0,0,.7-.7,3.516,3.516,0,0,0-7.031,0A.7.7,0,0,0,9.187,114.437Zm4.922-6.328A2.109,2.109,0,1,0,12,110.219,2.112,2.112,0,0,0,14.109,108.109Zm9.82,13.753-2.789-5.484H2.859L.07,121.862a.717.717,0,0,0,.028.675.732.732,0,0,0,.6.338H8.048L9.277,119.8a.7.7,0,0,1,.653-.442h4.139a.7.7,0,0,1,.653.442l1.23,3.074H23.3a.732.732,0,0,0,.6-.338A.717.717,0,0,0,23.929,121.862Z" transform="translate(0 -106)"/></g></g></g></svg>